<svg width="668" height="668" viewBox="0 0 668 668" fill="none" xmlns="http://www.w3.org/2000/svg">
<path fill-rule="evenodd" clip-rule="evenodd" d="M334 667.334C518.093 667.334 667.333 518.094 667.333 334C667.333 149.905 518.093 0.666992 334 0.666992C149.905 0.666992 0.666626 149.905 0.666626 334C0.666626 518.094 149.905 667.334 334 667.334ZM359 234C359 220.193 347.807 209 334 209C320.193 209 309 220.193 309 234V309H234C220.193 309 209 320.194 209 334C209 347.807 220.193 359 234 359H309V434C309 447.807 320.193 459 334 459C347.807 459 359 447.807 359 434V359H434C447.807 359 459 347.807 459 334C459 320.194 447.807 309 434 309H359V234Z" fill="#0ABAB5"/>
</svg>
