<svg width="700" height="700" viewBox="0 0 700 700" fill="none" xmlns="http://www.w3.org/2000/svg">
<path d="M350 0C442.826 0 531.85 36.8749 597.487 102.513C663.125 168.15 700 257.174 700 350C700 442.826 663.125 531.85 597.487 597.487C531.85 663.125 442.826 700 350 700C257.174 700 168.15 663.125 102.513 597.487C36.8749 531.85 0 442.826 0 350C0 257.174 36.8749 168.15 102.513 102.513C168.15 36.8749 257.174 0 350 0ZM175 350C175 357.956 178.161 365.587 183.787 371.213C189.413 376.839 197.044 380 205 380H495C502.956 380 510.587 376.839 516.213 371.213C521.839 365.587 525 357.956 525 350C525 342.044 521.839 334.413 516.213 328.787C510.587 323.161 502.956 320 495 320H205C201.06 320 197.159 320.776 193.519 322.284C189.88 323.791 186.573 326.001 183.787 328.787C181.001 331.573 178.791 334.88 177.284 338.52C175.776 342.159 175 346.06 175 350Z" fill="#FB0000"/>
</svg>
